HIERARCHY
ROOT root
{
	OFFSET	0	13.1	24.9
	CHANNELS 6  Xposition Yposition Zposition Xrotation Yrotation Zrotation
	JOINT spine_1
	{
		OFFSET	0	9.99999	0
		CHANNELS 3  Xrotation Yrotation Zrotation
		JOINT spine_2
		{
			OFFSET	0	112	-10
			CHANNELS 3  Xrotation Yrotation Zrotation
			JOINT spine_3
			{
				OFFSET	0	206.5	19.3
				CHANNELS 3  Xrotation Yrotation Zrotation
				JOINT spine_4
				{
					OFFSET	0	110.4	14.6
					CHANNELS 3  Xrotation Yrotation Zrotation
					JOINT neck_1
					{
						OFFSET	0	71.8	-50.3
						CHANNELS 3  Xrotation Yrotation Zrotation
						JOINT neck_2
						{
							OFFSET	0	86.2	-25.8
							CHANNELS 3  Xrotation Yrotation Zrotation
							JOINT head_ee
							{
								OFFSET	0	179.8	-8.7
								CHANNELS 3  Xrotation Yrotation Zrotation
								End Site
								{
									OFFSET	1	0	0
								}
							}
						}
					}
					JOINT left_clavicle
					{
						OFFSET	-43.2	22.4	-70.8
						CHANNELS 3  Xrotation Yrotation Zrotation
						JOINT left_shoulder
						{
							OFFSET	-93.9	-5.79999	48.7
							CHANNELS 3  Xrotation Yrotation Zrotation
							JOINT left_elbow
							{
								OFFSET	-291.4	-30.8	15.2
								CHANNELS 3  Xrotation Yrotation Zrotation
								JOINT left_lowarm_twist
								{
									OFFSET	-110.7	-3.89999	13.6
									CHANNELS 3  Xrotation Yrotation Zrotation
									JOINT left_hand
									{
										OFFSET	-110.7	-3.89999	13.6
										CHANNELS 3  Xrotation Yrotation Zrotation
										JOINT left_ee
										{
											OFFSET	-80.8	-5.10001	12.1
											CHANNELS 3  Xrotation Yrotation Zrotation
											End Site
											{
												OFFSET	1	0	0
											}
										}
									}
								}
							}
						}
					}
					JOINT right_clavicle
					{
						OFFSET	43.2	22.4	-70.8
						CHANNELS 3  Xrotation Yrotation Zrotation
						JOINT right_shoulder
						{
							OFFSET	93.9	-5.79999	48.7
							CHANNELS 3  Xrotation Yrotation Zrotation
							JOINT right_elbow
							{
								OFFSET	291.4	-30.8	15.2
								CHANNELS 3  Xrotation Yrotation Zrotation
								JOINT right_lowarm_twist
								{
									OFFSET	110.7	-3.89999	13.6
									CHANNELS 3  Xrotation Yrotation Zrotation
									JOINT right_hand
									{
										OFFSET	110.7	-3.89999	13.6
										CHANNELS 3  Xrotation Yrotation Zrotation
										JOINT right_ee
										{
											OFFSET	80.8	-5.10001	12.1
											CHANNELS 3  Xrotation Yrotation Zrotation
											End Site
											{
												OFFSET	1	0	0
											}
										}
									}
								}
							}
						}
					}
				}
			}
		}
	}
	JOINT left_hip
	{
		OFFSET	-82.8	-127.5	0.300001
		CHANNELS 3  Xrotation Yrotation Zrotation
		JOINT left_knee
		{
			OFFSET	-28.2	-396.7	2.2
			CHANNELS 3  Xrotation Yrotation Zrotation
			JOINT left_ankle
			{
				OFFSET	-11.7	-411.3	35.4
				CHANNELS 3  Xrotation Yrotation Zrotation
				JOINT left_toes
				{
					OFFSET	0	-60	-88.6
					CHANNELS 3  Xrotation Yrotation Zrotation
					JOINT left_foot_ee
					{
						OFFSET	-22.5	-16.5	-42.2
						CHANNELS 3  Xrotation Yrotation Zrotation
						End Site
						{
							OFFSET	1	0	0
						}
					}
				}
			}
		}
	}
	JOINT right_hip
	{
		OFFSET	82.8	-127.5	0.300001
		CHANNELS 3  Xrotation Yrotation Zrotation
		JOINT right_knee
		{
			OFFSET	28.2	-396.7	2.2
			CHANNELS 3  Xrotation Yrotation Zrotation
			JOINT right_ankle
			{
				OFFSET	11.7	-411.3	35.4
				CHANNELS 3  Xrotation Yrotation Zrotation
				JOINT right_toes
				{
					OFFSET	0	-60	-88.6
					CHANNELS 3  Xrotation Yrotation Zrotation
					JOINT right_foot_ee
					{
						OFFSET	22.5	-16.5	-42.2
						CHANNELS 3  Xrotation Yrotation Zrotation
						End Site
						{
							OFFSET	1	0	0
						}
					}
				}
			}
		}
	}
}
MOTION
Frames: 6
Frame Time: 0.02
3494.9074934 715.641 -1553.95446967 6.78553813792 66.1779985704 -4.03297733957 -1.28955 0.0271627 -2.22306 -1.28682 0.168532 -2.21683 -1.29151 0.678933 -2.11707 -1.29761 0.336146 -2.19768 -8.9131 11.6929 10.3792 -8.66992 14.7346 12.8489 -0.0 0.0 -0.0 1.85614 20.2055 5.07047 -23.4514 -43.5976 67.0695 0.944974 -25.0845 0.210231 -8.87697 -0.395998 1.06242 -0.404189 1.8123 -1.92334 -0.0 0.0 -0.0 10.5495 14.5308 -20.9366 -15.4936 21.2528 -53.8944 0.657756 18.0474 -0.104458 17.3581 -0.281642 2.19099 -1.68008 -28.4475 -2.00398 0.0 0.0 0.0 18.1956 9.2318 -8.13327 -39.0104 -0.405011 5.85925 32.7316 15.988 -4.23892 -14.7109 0.0 0.0 -0.0 0.0 -0.0 -3.76956 -17.233 0.829852 -16.3132 -0.321317 -2.47437 35.9143 33.5955 5.76397 0.38714 -0.0 -0.0 0.0 0.0 0.0 
3497.4106191 715.641 -1556.38972418 6.34257999024 64.4069345714 -3.54544010135 -1.28955 0.0271627 -2.22306 -1.28682 0.168532 -2.21683 -1.29151 0.678933 -2.11707 -1.29761 0.336146 -2.19768 -8.9131 11.6929 10.3792 -8.66992 14.7346 12.8489 -0.0 0.0 -0.0 1.85614 20.2055 5.07047 -23.4514 -43.5976 67.0695 0.944974 -25.0845 0.210231 -8.87697 -0.395998 1.06242 -0.404189 1.8123 -1.92334 -0.0 0.0 -0.0 10.5495 14.5308 -20.9366 -15.4936 21.2528 -53.8944 0.657756 18.0474 -0.104458 17.3581 -0.281642 2.19099 -1.68008 -28.4475 -2.00398 0.0 0.0 0.0 18.1956 9.2318 -8.13327 -39.0104 -0.405011 5.85925 32.7316 15.988 -4.23892 -14.7109 0.0 0.0 -0.0 0.0 -0.0 -3.76956 -17.233 0.829852 -16.3132 -0.321317 -2.47437 35.9143 33.5955 5.76397 0.38714 -0.0 -0.0 0.0 0.0 0.0 
3494.16736832 715.199 -1559.45104585 6.39014543139 64.7803261834 -3.17949991803 -1.28787 0.0366346 -2.12876 -1.28536 0.171988 -2.12212 -1.29008 0.66022 -2.02417 -1.29564 0.332329 -2.10299 -8.70144 11.6438 10.2697 -8.46055 14.6643 12.7107 -0.0 0.0 -0.0 1.47486 19.7564 4.48 -23.5598 -43.3142 68.0963 0.943902 -25.0595 0.209777 -8.77038 -0.390274 1.05004 -0.44817 1.83827 -2.20453 -0.0 0.0 -0.0 10.9422 15.7446 -21.7687 -14.4732 21.8865 -54.0285 0.657266 18.0348 -0.104307 17.6141 -0.280796 2.22368 -1.45038 -27.8386 -2.97337 0.0 0.0 0.0 18.84 8.18157 -8.80245 -36.4629 -0.257208 5.49675 29.5853 15.2083 -3.89148 -15.3698 0.0 0.0 -0.0 0.0 -0.0 -4.50271 -17.3337 -0.289559 -16.1368 -0.321634 -2.4473 37.2209 33.731 5.91915 0.0716186 -0.0 -0.0 0.0 0.0 0.0 
3488.65499072 716.406 -1563.32301825 7.01888536028 65.5363294704 -3.63813354373 -1.31829 0.0584245 -2.19617 -1.31563 0.198021 -2.18801 -1.32145 0.702018 -2.08182 -1.32731 0.364505 -2.16652 -8.88046 12.177 11.4821 -8.57123 14.8643 14.024 -0.0 0.0 -0.0 1.25907 19.3322 4.12859 -24.7671 -43.0365 68.8916 0.880198 -23.5581 0.183551 -8.4887 -0.375257 1.01729 -0.507235 2.28261 -2.40599 -0.0 0.0 -0.0 11.3902 16.7635 -22.735 -12.9572 22.8172 -53.7234 0.687396 18.8046 -0.113827 18.469 -0.276913 2.3328 -1.06275 -26.7596 -4.63292 0.0 0.0 0.0 19.1504 6.73874 -9.36223 -36.2367 -0.24487 5.46426 27.0112 14.438 -3.59496 -16.0457 0.0 0.0 -0.0 0.0 -0.0 -4.91113 -17.9151 -1.14437 -15.3707 -0.322043 -2.32976 35.7419 32.9757 5.69545 -1.70234 0.0 0.0 0.0 0.0 0.0 
3480.50789247 714.971 -1565.00612397 8.50219350861 66.8732419049 -4.46484440009 -1.29733 0.0939073 -2.29468 -1.29444 0.239695 -2.28407 -1.30216 0.764238 -2.16578 -1.30847 0.412695 -2.25924 -7.80851 12.4426 11.1398 -7.5051 15.3062 13.6459 -0.0 0.0 -0.0 1.16886 18.7615 3.94851 -25.1649 -42.667 69.983 0.813545 -21.9496 0.157768 -7.88495 -0.343616 0.946854 -0.801718 2.9015 -4.09185 -0.0 0.0 -0.0 11.8472 18.0352 -23.7095 -11.8076 23.4912 -53.4478 0.704922 19.2491 -0.119541 18.7167 -0.275483 2.36441 -0.762561 -26.0726 -6.0191 0.0 0.0 0.0 21.0132 2.86718 -11.3812 -25.8455 0.180644 3.92862 20.1022 13.6167 -2.76107 -18.3483 0.0 0.0 -0.0 0.0 -0.0 -5.91792 -21.4369 -2.21615 -15.6339 -0.32208 -2.37014 35.9512 32.0683 5.64937 -0.805521 0.0 0.0 0.0 0.0 0.0 
3479.4109786 714.971 -1563.85097594 8.75246705233 67.5659709575 -4.73628698857 -1.29733 0.0939073 -2.29468 -1.29444 0.239695 -2.28407 -1.30216 0.764238 -2.16578 -1.30847 0.412695 -2.25924 -7.80851 12.4426 11.1398 -7.5051 15.3062 13.6459 -0.0 0.0 -0.0 1.16886 18.7615 3.94851 -25.1649 -42.667 69.983 0.813545 -21.9496 0.157768 -7.88495 -0.343616 0.946854 -0.801718 2.9015 -4.09185 -0.0 0.0 -0.0 11.8472 18.0352 -23.7095 -11.8076 23.4912 -53.4478 0.704922 19.2491 -0.119541 18.7167 -0.275483 2.36441 -0.762561 -26.0726 -6.0191 0.0 0.0 0.0 21.0132 2.86718 -11.3812 -25.8455 0.180644 3.92862 20.1022 13.6167 -2.76107 -18.3483 0.0 0.0 -0.0 0.0 -0.0 -5.91792 -21.4369 -2.21615 -15.6339 -0.32208 -2.37014 35.9512 32.0683 5.64937 -0.805521 0.0 0.0 0.0 0.0 0.0 
